<svg width="426" height="417" viewBox="0 0 426 417" fill="none" xmlns="http://www.w3.org/2000/svg">
<path d="M308.318 246.52C306.773 247.659 305.659 248.481 303.121 248.481C300.583 248.481 299.469 247.659 297.924 246.52C296.199 245.251 294.06 243.682 290.066 243.682C286.073 243.682 283.925 245.26 282.209 246.52C280.664 247.659 279.549 248.481 277.012 248.481C274.474 248.481 273.36 247.659 271.822 246.52C271.017 245.935 270.122 245.276 269 244.739V250.49C269.049 250.53 269.106 250.563 269.155 250.603C270.879 251.872 273.018 253.442 277.012 253.442C281.005 253.442 283.153 251.864 284.869 250.603C286.414 249.465 287.529 248.643 290.058 248.643C292.588 248.643 293.71 249.465 295.256 250.603C296.98 251.872 299.119 253.442 303.113 253.442C307.106 253.442 309.238 251.88 310.954 250.612V244.82C309.904 245.341 309.067 245.959 308.302 246.512" fill="#E2092F"/>
<path d="M303.129 237.622C300.599 237.622 299.477 236.801 297.931 235.662C296.207 234.393 294.068 232.823 290.074 232.823C286.08 232.823 283.933 234.401 282.217 235.662C280.672 236.801 279.557 237.622 277.028 237.622C274.498 237.622 273.376 236.801 271.83 235.662C271.033 235.076 270.13 234.417 269.008 233.881V239.631C269.057 239.672 269.114 239.704 269.162 239.745C270.887 241.014 273.026 242.584 277.02 242.584C281.013 242.584 283.16 241.006 284.877 239.745C286.422 238.606 287.536 237.785 290.074 237.785C292.612 237.785 293.726 238.606 295.272 239.745C296.996 241.014 299.135 242.584 303.129 242.584C307.122 242.584 309.253 241.022 310.97 239.753V233.962C309.92 234.483 309.083 235.101 308.318 235.654C306.773 236.793 305.658 237.614 303.121 237.614" fill="#E2092F"/>
<path d="M269.163 228.903C270.887 230.172 273.026 231.741 277.02 231.741C281.014 231.741 283.161 230.163 284.877 228.903C286.422 227.764 287.537 226.942 290.074 226.942C292.612 226.942 293.727 227.764 295.272 228.903C296.996 230.172 299.135 231.741 303.129 231.741C307.123 231.741 309.254 230.172 310.97 228.911V223.12C309.921 223.64 309.083 224.258 308.318 224.811C306.773 225.95 305.659 226.772 303.121 226.772C300.583 226.772 299.469 225.95 297.924 224.811C296.199 223.543 294.06 221.973 290.066 221.973C286.073 221.973 283.925 223.551 282.209 224.811C280.664 225.95 279.549 226.772 277.012 226.772C274.474 226.772 273.368 225.95 271.822 224.811C271.025 224.226 270.122 223.567 269 223.038V228.789C269.049 228.829 269.106 228.862 269.155 228.903" fill="#E2092F"/>
<path d="M386.652 391.922C388.197 390.783 389.312 389.962 391.849 389.962C394.387 389.962 395.501 390.783 397.047 391.922C398.771 393.191 400.91 394.76 404.904 394.76C408.898 394.76 411.045 393.182 412.761 391.922C414.306 390.783 415.421 389.962 417.959 389.962C420.496 389.962 421.611 390.783 423.148 391.922C423.953 392.507 424.848 393.166 425.97 393.703L425.97 387.952C425.921 387.912 425.864 387.879 425.816 387.839C424.091 386.57 421.952 385 417.959 385C413.965 385 411.818 386.578 410.101 387.839C408.556 388.977 407.442 389.799 404.912 389.799C402.382 389.799 401.26 388.977 399.715 387.839C397.99 386.57 395.851 385 391.857 385C387.864 385 385.733 386.562 384.016 387.83L384.016 393.622C385.066 393.101 385.904 392.483 386.668 391.93" fill="#E2092F"/>
<path d="M391.841 400.82C394.371 400.82 395.493 401.641 397.039 402.78C398.763 404.049 400.902 405.619 404.896 405.619C408.89 405.619 411.037 404.041 412.753 402.78C414.299 401.641 415.413 400.82 417.943 400.82C420.472 400.82 421.595 401.641 423.14 402.78C423.937 403.366 424.84 404.025 425.962 404.561L425.962 398.811C425.914 398.77 425.857 398.738 425.808 398.697C424.084 397.428 421.944 395.858 417.951 395.858C413.957 395.858 411.81 397.436 410.094 398.697C408.548 399.836 407.434 400.657 404.896 400.657C402.358 400.657 401.244 399.836 399.699 398.697C397.974 397.428 395.835 395.858 391.841 395.858C387.848 395.858 385.717 397.42 384.001 398.689L384.001 404.48C385.05 403.96 385.888 403.341 386.652 402.788C388.198 401.65 389.312 400.828 391.85 400.828" fill="#E2092F"/>
<path d="M425.808 409.539C424.083 408.271 421.944 406.701 417.95 406.701C413.957 406.701 411.809 408.279 410.093 409.539C408.548 410.678 407.433 411.5 404.896 411.5C402.358 411.5 401.244 410.678 399.698 409.539C397.974 408.271 395.835 406.701 391.841 406.701C387.847 406.701 385.716 408.271 384 409.531L384 415.322C385.049 414.802 385.887 414.184 386.652 413.631C388.197 412.492 389.312 411.67 391.849 411.67C394.387 411.67 395.501 412.492 397.047 413.631C398.771 414.9 400.91 416.469 404.904 416.469C408.898 416.469 411.045 414.891 412.761 413.631C414.306 412.492 415.421 411.67 417.959 411.67C420.496 411.67 421.602 412.492 423.148 413.631C423.945 414.216 424.848 414.875 425.97 415.404L425.97 409.653C425.921 409.613 425.864 409.58 425.816 409.539" fill="#E2092F"/>
<path d="M362.126 166V186.849H362.077V186.898C362.077 194.585 357.928 201.288 351.746 204.925C348.655 206.739 345.051 207.78 341.203 207.78C337.355 207.78 333.679 206.714 330.563 204.868C324.437 201.232 320.321 194.545 320.321 186.898V186.849H320.272V166H322.274C332.662 166.992 340.821 175.615 341.097 186.199C341.366 175.648 349.468 167.049 359.799 166H362.126Z" fill="#009882"/>
<path d="M6.10352e-05 41.78L6.28579e-05 20.9307L0.0488681 20.9307L0.0488681 20.8819C0.0488688 13.1945 4.19759 6.49152 10.38 2.85529C13.4712 1.04125 17.0749 -2.1662e-06 20.9226 -1.82982e-06C24.7703 -1.49344e-06 28.4472 1.06565 31.5628 2.91224C37.6883 6.54847 41.8045 13.2352 41.8045 20.8819L41.8045 20.9307L41.8533 20.9307L41.8533 41.78L39.8521 41.78C29.4641 40.7876 21.3049 32.1647 21.0284 21.5815C20.7599 32.1322 12.6577 40.7306 2.3266 41.78L6.10352e-05 41.78Z" fill="#009882"/>
<path d="M327.433 259.07C331.288 259.07 334.41 255.947 334.41 252.092C334.41 248.238 331.288 245.115 327.433 245.115C323.578 245.115 320.455 248.238 320.455 252.092C320.455 255.947 323.578 259.07 327.433 259.07Z" fill="#E2092F"/>
<path d="M341.388 245.066C345.243 245.066 348.366 241.943 348.366 238.088C348.366 234.233 345.243 231.11 341.388 231.11C337.534 231.11 334.411 234.233 334.411 238.088C334.411 241.943 337.534 245.066 341.388 245.066Z" fill="#E2092F"/>
<path d="M341.388 259.07C345.243 259.07 348.366 255.947 348.366 252.092C348.366 248.238 345.243 245.115 341.388 245.115C337.534 245.115 334.411 248.238 334.411 252.092C334.411 255.947 337.534 259.07 341.388 259.07Z" fill="#E2092F"/>
<path d="M355.352 245.066C359.207 245.066 362.329 241.943 362.329 238.088C362.329 234.233 359.207 231.11 355.352 231.11C351.497 231.11 348.374 234.233 348.374 238.088C348.374 241.943 351.497 245.066 355.352 245.066Z" fill="#E2092F"/>
<path d="M355.352 231.045C359.207 231.045 362.329 227.923 362.329 224.068C362.329 220.213 359.207 217.09 355.352 217.09C351.497 217.09 348.374 220.213 348.374 224.068C348.374 227.923 351.497 231.045 355.352 231.045Z" fill="#E2092F"/>
<path d="M355.352 259.07C359.207 259.07 362.329 255.947 362.329 252.092C362.329 248.238 359.207 245.115 355.352 245.115C351.497 245.115 348.374 248.238 348.374 252.092C348.374 255.947 351.497 259.07 355.352 259.07Z" fill="#E2092F"/>
<path d="M310.282 268.532L310.265 268.516V268.475L310.241 268.491C308.524 268.385 267.342 265.847 271.158 309.576C271.158 309.73 271.158 309.844 271.207 309.966C271.345 309.983 271.459 309.983 271.581 309.974C315.448 311.219 310.485 270.24 310.282 268.532Z" fill="#009882"/>
<path d="M234.91 74.9799H214.06V54.1399L234.91 74.9799Z" fill="#009882"/>
<path d="M255.55 95.62H234.7V74.77L255.55 95.62Z" fill="#009882"/>
<path d="M234.91 95.62H214.06V74.77L234.91 95.62Z" fill="#009882"/>
<path d="M343.64 351.34L364.49 351.34L364.49 372.18L343.64 351.34Z" fill="#009882"/>
<path d="M323 330.7L343.85 330.7L343.85 351.55L323 330.7Z" fill="#009882"/>
<path d="M343.64 330.7L364.49 330.7L364.49 351.55L343.64 330.7Z" fill="#009882"/>
<path d="M182.97 87.5399C175.92 87.5399 170.21 81.8299 170.21 74.7799C170.21 67.7299 175.92 62.0099 182.97 62.0099C190.02 62.0099 195.74 67.7299 195.74 74.7799C195.74 81.8299 190.02 87.5399 182.97 87.5399ZM182.97 53.9699C171.48 53.9699 162.17 63.2899 162.17 74.7799C162.17 86.2699 171.48 95.5899 182.97 95.5899C194.46 95.5899 203.78 86.2699 203.78 74.7799C203.78 63.2899 194.47 53.9699 182.97 53.9699Z" fill="#E2092F"/>
<path d="M189.04 74.7799C189.04 78.1299 186.33 80.8499 182.97 80.8499C179.61 80.8499 176.91 78.1299 176.91 74.7799C176.91 71.4299 179.62 68.7099 182.97 68.7099C186.32 68.7099 189.04 71.4299 189.04 74.7799Z" fill="#E2092F"/>
<path d="M404.58 338.78C411.63 338.78 417.34 344.49 417.34 351.54C417.34 358.59 411.63 364.31 404.58 364.31C397.53 364.31 391.81 358.59 391.81 351.54C391.81 344.49 397.53 338.78 404.58 338.78ZM404.58 372.35C416.07 372.35 425.38 363.03 425.38 351.54C425.38 340.05 416.07 330.73 404.58 330.73C393.09 330.73 383.77 340.05 383.77 351.54C383.77 363.03 393.08 372.35 404.58 372.35Z" fill="#E2092F"/>
<path d="M398.51 351.54C398.51 348.19 401.22 345.47 404.58 345.47C407.94 345.47 410.64 348.19 410.64 351.54C410.64 354.89 407.93 357.61 404.58 357.61C401.23 357.61 398.51 354.89 398.51 351.54Z" fill="#E2092F"/>
<path d="M255.66 1.99997V22.7H255.61V22.75C255.61 30.38 251.49 37.04 245.35 40.65C242.28 42.45 238.7 43.48 234.88 43.48C231.06 43.48 227.41 42.42 224.32 40.59C218.24 36.98 214.16 30.34 214.16 22.75V22.7H214.11V1.99997H216.1C226.41 2.98997 234.52 11.55 234.79 22.05C235.05 11.58 243.1 3.03997 253.35 1.99997H255.66Z" fill="#E2092F"/>
<path d="M201.01 31.36C199.48 32.49 198.37 33.3 195.86 33.3C193.35 33.3 192.24 32.48 190.71 31.36C189 30.1 186.87 28.54 182.91 28.54C178.95 28.54 176.82 30.1 175.11 31.36C173.58 32.49 172.47 33.3 169.96 33.3C167.45 33.3 166.34 32.48 164.81 31.36C164.02 30.78 163.13 30.13 162.01 29.6V35.3C162.06 35.34 162.11 35.38 162.17 35.42C163.88 36.68 166 38.24 169.97 38.24C173.94 38.24 176.06 36.68 177.77 35.42C179.3 34.29 180.41 33.48 182.92 33.48C185.43 33.48 186.54 34.29 188.07 35.42C189.78 36.68 191.91 38.24 195.87 38.24C199.83 38.24 201.95 36.69 203.65 35.43V29.68C202.61 30.19 201.78 30.81 201.02 31.36" fill="#009882"/>
<path d="M195.85 22.53C193.34 22.53 192.23 21.72 190.7 20.59C188.99 19.33 186.87 17.77 182.9 17.77C178.93 17.77 176.81 19.33 175.1 20.59C173.57 21.72 172.46 22.53 169.95 22.53C167.44 22.53 166.33 21.72 164.8 20.59C164.01 20.01 163.12 19.36 162 18.83V24.53C162.05 24.57 162.1 24.61 162.16 24.65C163.87 25.91 165.99 27.47 169.96 27.47C173.93 27.47 176.05 25.91 177.76 24.65C179.29 23.52 180.4 22.71 182.91 22.71C185.42 22.71 186.53 23.53 188.06 24.65C189.77 25.91 191.9 27.47 195.86 27.47C199.82 27.47 201.94 25.92 203.64 24.66V18.91C202.6 19.42 201.77 20.04 201.01 20.59C199.48 21.72 198.37 22.53 195.86 22.53" fill="#009882"/>
<path d="M162.15 13.87C163.86 15.13 165.98 16.69 169.95 16.69C173.92 16.69 176.04 15.13 177.75 13.87C179.28 12.74 180.39 11.93 182.9 11.93C185.41 11.93 186.52 12.75 188.05 13.87C189.76 15.13 191.88 16.69 195.85 16.69C199.82 16.69 201.93 15.14 203.63 13.88V8.12996C202.59 8.63996 201.76 9.25996 201 9.80996C199.47 10.94 198.36 11.75 195.85 11.75C193.34 11.75 192.23 10.94 190.7 9.80996C188.99 8.54996 186.86 6.98996 182.9 6.98996C178.94 6.98996 176.81 8.54996 175.1 9.80996C173.57 10.94 172.46 11.75 169.95 11.75C167.44 11.75 166.33 10.94 164.8 9.80996C164.01 9.22996 163.12 8.57996 162 8.04996V13.75C162.05 13.79 162.1 13.83 162.16 13.87" fill="#009882"/>
<path d="M204.22 140.71C204.22 136.88 201.08 133.78 197.2 133.78C193.32 133.78 190.18 136.88 190.18 140.71C190.18 144.54 193.32 147.64 197.2 147.64C201.08 147.64 204.22 144.54 204.22 140.71Z" fill="#009882"/>
<path d="M190.15 126.85C190.15 123.02 187.01 119.92 183.13 119.92C179.25 119.92 176.11 123.02 176.11 126.85C176.11 130.68 179.25 133.78 183.13 133.78C187.01 133.78 190.15 130.68 190.15 126.85Z" fill="#009882"/>
<path d="M204.22 126.85C204.22 123.02 201.08 119.92 197.2 119.92C193.32 119.92 190.18 123.02 190.18 126.85C190.18 130.68 193.32 133.78 197.2 133.78C201.08 133.78 204.22 130.68 204.22 126.85Z" fill="#009882"/>
<path d="M190.15 112.99C190.15 109.16 187.01 106.06 183.13 106.06C179.25 106.06 176.11 109.16 176.11 112.99C176.11 116.82 179.25 119.92 183.13 119.92C187.01 119.92 190.15 116.82 190.15 112.99Z" fill="#009882"/>
<path d="M176.05 112.99C176.05 109.16 172.91 106.06 169.03 106.06C165.15 106.06 162.02 109.16 162.02 112.99C162.02 116.82 165.16 119.92 169.04 119.92C172.92 119.92 176.06 116.82 176.06 112.99" fill="#009882"/>
<path d="M204.22 112.99C204.22 109.16 201.08 106.06 197.2 106.06C193.32 106.06 190.18 109.16 190.18 112.99C190.18 116.82 193.32 119.92 197.2 119.92C201.08 119.92 204.22 116.82 204.22 112.99Z" fill="#009882"/>
<path d="M380.33 280.61C380.33 284.44 383.47 287.54 387.35 287.54C391.23 287.54 394.37 284.44 394.37 280.61C394.37 276.78 391.23 273.68 387.35 273.68C383.47 273.68 380.33 276.78 380.33 280.61Z" fill="#009882"/>
<path d="M394.4 294.47C394.4 298.3 397.54 301.4 401.42 301.4C405.3 301.4 408.44 298.3 408.44 294.47C408.44 290.64 405.3 287.54 401.42 287.54C397.54 287.54 394.4 290.64 394.4 294.47Z" fill="#009882"/>
<path d="M380.33 294.47C380.33 298.3 383.47 301.4 387.35 301.4C391.23 301.4 394.37 298.3 394.37 294.47C394.37 290.64 391.23 287.54 387.35 287.54C383.47 287.54 380.33 290.64 380.33 294.47Z" fill="#009882"/>
<path d="M394.4 308.33C394.4 312.16 397.54 315.26 401.42 315.26C405.3 315.26 408.44 312.16 408.44 308.33C408.44 304.5 405.3 301.4 401.42 301.4C397.54 301.4 394.4 304.5 394.4 308.33Z" fill="#009882"/>
<path d="M408.5 308.33C408.5 312.16 411.64 315.26 415.52 315.26C419.4 315.26 422.53 312.16 422.53 308.33C422.53 304.5 419.39 301.4 415.51 301.4C411.63 301.4 408.49 304.5 408.49 308.33" fill="#009882"/>
<path d="M380.33 308.33C380.33 312.16 383.47 315.26 387.35 315.26C391.23 315.26 394.37 312.16 394.37 308.33C394.37 304.5 391.23 301.4 387.35 301.4C383.47 301.4 380.33 304.5 380.33 308.33Z" fill="#009882"/>
<path d="M254.9 106.62L254.88 106.6V106.56L254.86 106.58C253.15 106.47 212.3 103.93 216.09 147.76C216.09 147.92 216.09 148.03 216.14 148.15C216.28 148.17 216.39 148.16 216.51 148.15C260.03 149.4 255.11 108.32 254.9 106.61" fill="#E2092F"/>
<path d="M322.65 314.7L322.67 314.72L322.67 314.76L322.69 314.74C324.4 314.85 365.25 317.39 361.46 273.56C361.46 273.4 361.46 273.29 361.41 273.17C361.27 273.15 361.16 273.16 361.04 273.17C317.52 271.92 322.44 313 322.65 314.71" fill="#E2092F"/>
<path d="M236.73 177.823C241.01 177.823 244.497 181.301 244.497 185.591C244.497 189.88 241.01 193.368 236.73 193.368C232.449 193.368 228.953 189.88 228.953 185.591C228.953 181.301 232.44 177.823 236.73 177.823ZM236.73 206.32C248.162 206.32 257.44 197.042 257.44 185.591C257.44 174.14 248.162 164.88 236.73 164.88C225.297 164.88 216 174.158 216 185.591C216 197.023 225.278 206.32 236.73 206.32Z" fill="#009882"/>
<path d="M399.821 245.497C395.54 245.497 392.053 242.019 392.053 237.729C392.053 233.44 395.54 229.952 399.821 229.952C404.101 229.952 407.598 233.44 407.598 237.729C407.598 242.019 404.11 245.497 399.821 245.497ZM399.821 217C388.388 217 379.11 226.278 379.11 237.729C379.11 249.18 388.388 258.44 399.821 258.44C411.253 258.44 420.55 249.162 420.55 237.729C420.55 226.297 411.272 217 399.821 217Z" fill="#009882"/>
<path d="M125.396 29.9569C121.116 29.9569 117.629 26.4787 117.629 22.1893C117.629 17.8998 121.116 14.4123 125.396 14.4123C129.677 14.4123 133.173 17.8998 133.173 22.1893C133.173 26.4787 129.686 29.9569 125.396 29.9569ZM125.396 1.45993C113.964 1.45993 104.686 10.7382 104.686 22.1893C104.686 33.6403 113.964 42.8999 125.396 42.8999C136.829 42.8999 146.126 33.6216 146.126 22.1893C146.126 10.7569 136.847 1.45994 125.396 1.45993Z" fill="#E2092F"/>
<path d="M305.279 149.831C300.455 151.501 295.416 149.383 292.598 144.96C289.78 149.374 284.741 151.501 279.917 149.831C273.804 147.713 270.343 140.313 272.19 133.296C274.038 126.288 292.598 108.969 292.598 108.969C292.598 108.969 311.158 126.288 313.006 133.296C314.853 140.313 311.391 147.713 305.279 149.831Z" fill="#E2092F"/>
<path d="M327.554 116.042L334.495 109.12L348.375 123.01L348.394 123.019L346.025 125.37L341.426 129.922L327.554 116.042Z" fill="#009882"/>
<path d="M348.414 136.909L348.442 136.881L353.013 132.357L355.373 130.006L369.244 143.868L362.313 150.79L348.414 136.909Z" fill="#009882"/>
<path d="M348.395 123.019L348.413 122.991L362.313 109.222L369.3 116.209L355.372 130.006L355.363 129.988L348.395 123.019Z" fill="#009882"/>
<path d="M327.555 143.673L341.427 129.922L348.414 136.909L334.542 150.66L327.555 143.673Z" fill="#009882"/>
<path d="M305.798 164.64C301.973 164.64 298.867 167.747 298.867 171.571C298.867 175.396 301.973 178.503 305.798 178.503C309.623 178.503 312.729 175.396 312.729 171.571C312.729 167.747 309.623 164.64 305.798 164.64Z" fill="#E2092F"/>
<path d="M291.936 178.549C288.111 178.549 285.005 181.656 285.005 185.481C285.005 189.306 288.111 192.412 291.936 192.412C295.761 192.412 298.867 189.306 298.867 185.481C298.867 181.656 295.761 178.549 291.936 178.549Z" fill="#E2092F"/>
<path d="M291.936 164.64C288.111 164.64 285.005 167.747 285.005 171.571C285.005 175.396 288.111 178.503 291.936 178.503C295.761 178.503 298.867 175.396 298.867 171.571C298.867 167.747 295.761 164.64 291.936 164.64Z" fill="#E2092F"/>
<path d="M278.073 178.549C274.248 178.549 271.142 181.656 271.142 185.481C271.142 189.306 274.248 192.412 278.073 192.412C281.898 192.412 285.004 189.306 285.004 185.481C285.004 181.656 281.898 178.549 278.073 178.549Z" fill="#E2092F"/>
<path d="M278.073 192.477C274.248 192.477 271.142 195.584 271.142 199.409C271.142 203.234 274.239 206.34 278.073 206.34C281.907 206.34 285.004 203.234 285.004 199.409C285.004 195.584 281.898 192.477 278.073 192.477Z" fill="#E2092F"/>
<path d="M278.073 164.64C274.248 164.64 271.142 167.747 271.142 171.571C271.142 175.396 274.248 178.503 278.073 178.503C281.898 178.503 285.004 175.396 285.004 171.571C285.004 167.747 281.898 164.64 278.073 164.64Z" fill="#E2092F"/>
<path d="M56.3276 43.1399C60.1524 43.1399 63.2589 40.0334 63.2589 36.2086C63.2589 32.3837 60.1524 29.2772 56.3276 29.2772C52.5027 29.2772 49.3962 32.3837 49.3962 36.2086C49.3962 40.0334 52.5027 43.1399 56.3276 43.1399Z" fill="#E2092F"/>
<path d="M70.1899 29.2305C74.0147 29.2305 77.1212 26.124 77.1212 22.2992C77.1212 18.4744 74.0147 15.3679 70.1899 15.3679C66.365 15.3679 63.2585 18.4744 63.2585 22.2992C63.2585 26.124 66.365 29.2305 70.1899 29.2305Z" fill="#E2092F"/>
<path d="M70.1899 43.1399C74.0147 43.1399 77.1212 40.0334 77.1212 36.2086C77.1212 32.3837 74.0147 29.2772 70.1899 29.2772C66.365 29.2772 63.2585 32.3837 63.2585 36.2086C63.2585 40.0334 66.365 43.1399 70.1899 43.1399Z" fill="#E2092F"/>
<path d="M84.0529 29.2305C87.8777 29.2305 90.9842 26.124 90.9842 22.2992C90.9842 18.4744 87.8777 15.3679 84.0529 15.3679C80.2281 15.3679 77.1216 18.4744 77.1216 22.2992C77.1216 26.124 80.2281 29.2305 84.0529 29.2305Z" fill="#E2092F"/>
<path d="M84.0529 15.3026C87.8777 15.3026 90.9842 12.1961 90.9842 8.37124C90.9842 4.54642 87.8871 1.43991 84.0529 1.43991C80.2188 1.43991 77.1216 4.54641 77.1216 8.37124C77.1216 12.1961 80.2281 15.3026 84.0529 15.3026Z" fill="#E2092F"/>
<path d="M84.0529 43.1399C87.8777 43.1399 90.9842 40.0334 90.9842 36.2086C90.9842 32.3837 87.8777 29.2772 84.0529 29.2772C80.2281 29.2772 77.1216 32.3837 77.1216 36.2086C77.1216 40.0334 80.2281 43.1399 84.0529 43.1399Z" fill="#E2092F"/>
</svg>
