<svg width="157" height="200" viewBox="0 0 157 200" fill="none" xmlns="http://www.w3.org/2000/svg">
<g id="Frame 125">
<g id="Group 24">
<path id="Vector" d="M117.652 169.949C119.198 168.81 120.312 167.989 122.85 167.989C125.387 167.989 126.502 168.81 128.047 169.949C129.772 171.218 131.911 172.788 135.904 172.788C139.898 172.788 142.045 171.21 143.762 169.949C145.307 168.81 146.421 167.989 148.959 167.989C151.497 167.989 152.611 168.81 154.148 169.949C154.954 170.535 155.848 171.193 156.971 171.73V165.98C156.922 165.939 156.865 165.906 156.816 165.866C155.092 164.597 152.953 163.027 148.959 163.027C144.965 163.027 142.818 164.605 141.102 165.866C139.556 167.005 138.442 167.826 135.913 167.826C133.383 167.826 132.26 167.005 130.715 165.866C128.991 164.597 126.852 163.027 122.858 163.027C118.864 163.027 116.733 164.589 115.017 165.858V171.649C116.066 171.128 116.904 170.51 117.669 169.957" fill="white"/>
<path id="Vector_2" d="M122.842 178.847C125.372 178.847 126.494 179.669 128.039 180.807C129.764 182.076 131.903 183.646 135.897 183.646C139.89 183.646 142.038 182.068 143.754 180.807C145.299 179.669 146.413 178.847 148.943 178.847C151.473 178.847 152.595 179.669 154.14 180.807C154.938 181.393 155.84 182.052 156.963 182.589V176.838C156.914 176.797 156.857 176.765 156.808 176.724C155.084 175.455 152.945 173.886 148.951 173.886C144.958 173.886 142.81 175.463 141.094 176.724C139.549 177.863 138.434 178.684 135.897 178.684C133.359 178.684 132.245 177.863 130.699 176.724C128.975 175.455 126.836 173.886 122.842 173.886C118.848 173.886 116.717 175.447 115.001 176.716V182.507C116.05 181.987 116.888 181.369 117.653 180.815C119.198 179.677 120.312 178.855 122.85 178.855" fill="white"/>
<path id="Vector_3" d="M156.808 187.567C155.084 186.298 152.945 184.728 148.951 184.728C144.957 184.728 142.81 186.306 141.094 187.567C139.548 188.705 138.434 189.527 135.896 189.527C133.359 189.527 132.244 188.705 130.699 187.567C128.974 186.298 126.835 184.728 122.842 184.728C118.848 184.728 116.717 186.298 115.001 187.559V193.35C116.05 192.829 116.888 192.211 117.652 191.658C119.198 190.519 120.312 189.698 122.85 189.698C125.387 189.698 126.502 190.519 128.047 191.658C129.772 192.927 131.911 194.497 135.904 194.497C139.898 194.497 142.045 192.919 143.762 191.658C145.307 190.519 146.421 189.698 148.959 189.698C151.497 189.698 152.603 190.519 154.148 191.658C154.945 192.244 155.848 192.902 156.971 193.431V187.681C156.922 187.64 156.865 187.607 156.816 187.567" fill="white"/>
</g>
<g id="Group 25">
<path id="Vector_4" d="M98.5379 157.399C94.6831 157.399 91.5602 160.522 91.5602 164.377C91.5602 168.232 94.6831 171.355 98.5379 171.355C102.393 171.355 105.516 168.232 105.516 164.377C105.516 160.522 102.393 157.399 98.5379 157.399Z" fill="white"/>
<path id="Vector_5" d="M84.5828 171.403C80.728 171.403 77.6052 174.526 77.6052 178.381C77.6052 182.236 80.728 185.359 84.5828 185.359C88.4377 185.359 91.5605 182.236 91.5605 178.381C91.5605 174.526 88.4377 171.403 84.5828 171.403Z" fill="white"/>
<path id="Vector_6" d="M84.5828 157.399C80.728 157.399 77.6052 160.522 77.6052 164.377C77.6052 168.232 80.728 171.355 84.5828 171.355C88.4377 171.355 91.5605 168.232 91.5605 164.377C91.5605 160.522 88.4377 157.399 84.5828 157.399Z" fill="white"/>
<path id="Vector_7" d="M70.619 171.403C66.7642 171.403 63.6413 174.526 63.6413 178.381C63.6413 182.236 66.7642 185.359 70.619 185.359C74.4738 185.359 77.5967 182.236 77.5967 178.381C77.5967 174.526 74.4738 171.403 70.619 171.403Z" fill="white"/>
<path id="Vector_8" d="M70.619 185.424C66.7642 185.424 63.6413 188.547 63.6413 192.402C63.6413 196.256 66.7642 199.379 70.619 199.379C74.4738 199.379 77.5967 196.256 77.5967 192.402C77.5967 188.547 74.4738 185.424 70.619 185.424Z" fill="white"/>
<path id="Vector_9" d="M70.619 157.399C66.7642 157.399 63.6413 160.522 63.6413 164.377C63.6413 168.232 66.7642 171.355 70.619 171.355C74.4738 171.355 77.5967 168.232 77.5967 164.377C77.5967 160.522 74.4738 157.399 70.619 157.399Z" fill="white"/>
</g>
<path id="Vector_10" d="M115.689 147.937L115.705 147.954V147.994L115.73 147.978C117.446 148.084 158.629 150.622 154.813 106.894C154.813 106.739 154.813 106.625 154.764 106.503C154.626 106.487 154.512 106.487 154.39 106.495C110.523 105.25 115.486 146.229 115.689 147.937Z" fill="white"/>
<path id="Vector_11" d="M26.1507 170.972C30.4308 170.972 33.9183 174.451 33.9183 178.74C33.9183 183.03 30.4308 186.517 26.1506 186.517C21.8705 186.517 18.3737 183.029 18.3737 178.74C18.3737 174.451 21.8612 170.972 26.1507 170.972ZM26.1506 199.469C37.583 199.469 46.8613 190.191 46.8613 178.74C46.8613 167.289 37.583 158.029 26.1507 158.029C14.7183 158.029 5.42133 167.308 5.42133 178.74C5.42133 190.172 14.6996 199.469 26.1506 199.469Z" fill="white"/>
</g>
</svg>
