<svg width="73" height="106" viewBox="0 0 73 106" fill="none" xmlns="http://www.w3.org/2000/svg">
<path d="M30.004 59.3887C28.8247 60.2023 27.9743 60.7892 26.0378 60.7892C24.1013 60.7892 23.2509 60.2023 22.0716 59.3887C20.7558 58.4822 19.1234 57.3606 16.0758 57.3606C13.0282 57.3606 11.3896 58.488 10.08 59.3887C8.90065 60.2023 8.05031 60.7892 6.11376 60.7892C4.17722 60.7892 3.32688 60.2023 2.15378 59.3887C1.5393 58.9703 0.856548 58.4996 0 58.116V62.2246C0.0372412 62.2537 0.0806893 62.2769 0.11793 62.306C1.43379 63.2126 3.06619 64.3341 6.11376 64.3341C9.16133 64.3341 10.7999 63.2067 12.1096 62.306C13.2889 61.4924 14.1392 60.9055 16.0696 60.9055C17.9999 60.9055 18.8565 61.4924 20.0358 62.306C21.3516 63.2126 22.984 64.3341 26.0316 64.3341C29.0792 64.3341 30.7054 63.2184 32.015 62.3118V58.1741C31.2143 58.5461 30.575 58.9877 29.9916 59.3829" fill="#E2092F"/>
<path d="M26.0437 53.0313C24.1133 53.0313 23.2568 52.4444 22.0775 51.6308C20.7616 50.7242 19.1292 49.6027 16.0816 49.6027C13.0341 49.6027 11.3955 50.7301 10.0858 51.6308C8.90651 52.4444 8.05616 53.0313 6.12583 53.0313C4.19549 53.0313 3.33895 52.4444 2.15964 51.6308C1.55137 51.2124 0.862407 50.7417 0.00585938 50.3581V54.4667C0.0431006 54.4958 0.0865486 54.519 0.12379 54.5481C1.43965 55.4547 3.07205 56.5762 6.11962 56.5762C9.16719 56.5762 10.8058 55.4488 12.1155 54.5481C13.2948 53.7345 14.1451 53.1476 16.0816 53.1476C18.0182 53.1476 18.8685 53.7345 20.0478 54.5481C21.3637 55.4547 22.9961 56.5762 26.0437 56.5762C29.0912 56.5762 30.7174 55.4605 32.0271 54.5539V50.4162C31.2264 50.7882 30.5871 51.2298 30.0036 51.625C28.8243 52.4386 27.974 53.0255 26.0375 53.0255" fill="#E2092F"/>
<path d="M0.124137 46.8015C1.43999 47.7081 3.0724 48.8297 6.11997 48.8297C9.16754 48.8297 10.8062 47.7023 12.1158 46.8015C13.2951 45.988 14.1455 45.401 16.082 45.401C18.0185 45.401 18.8689 45.988 20.0482 46.8015C21.364 47.7081 22.9964 48.8297 26.044 48.8297C29.0916 48.8297 30.7178 47.7081 32.0274 46.8074V42.6697C31.2268 43.0416 30.5874 43.4833 30.004 43.8785C28.8247 44.692 27.9744 45.279 26.0378 45.279C24.1013 45.279 23.2509 44.692 22.0716 43.8785C20.7558 42.9719 19.1234 41.8503 16.0758 41.8503C13.0282 41.8503 11.3896 42.9777 10.08 43.8785C8.90065 44.692 8.05031 45.279 6.11376 45.279C4.17722 45.279 3.33309 44.692 2.15378 43.8785C1.54551 43.46 0.856548 42.9893 0 42.6116V46.7202C0.0372412 46.7492 0.0806893 46.7725 0.11793 46.8015" fill="#E2092F"/>
<path d="M72.0183 0.880615V15.775H71.9811V15.8099C71.9811 21.3016 68.8156 26.0901 64.0983 28.6878C61.7397 29.9837 58.9901 30.7275 56.0542 30.7275C53.1184 30.7275 50.3129 29.9662 47.9357 28.6471C43.2619 26.0494 40.1212 21.2725 40.1212 15.8099V15.775H40.084V0.880615H41.6109C49.537 1.5896 55.7625 7.74959 55.9736 15.3101C56.1784 7.77283 62.3604 1.63027 70.2431 0.880615H72.0183Z" fill="#E2092F"/>
<path d="M45.5521 68.2747C48.4941 68.2747 50.8775 66.0431 50.8775 63.2886C50.8775 60.534 48.4941 58.3024 45.5521 58.3024C42.61 58.3024 40.2266 60.534 40.2266 63.2886C40.2266 66.0431 42.61 68.2747 45.5521 68.2747Z" fill="#E2092F"/>
<path d="M56.2034 58.2676C59.1455 58.2676 61.5289 56.0361 61.5289 53.2815C61.5289 50.527 59.1455 48.2954 56.2034 48.2954C53.2614 48.2954 50.8779 50.527 50.8779 53.2815C50.8779 56.0361 53.2614 58.2676 56.2034 58.2676Z" fill="#E2092F"/>
<path d="M56.2034 68.2747C59.1455 68.2747 61.5289 66.0432 61.5289 63.2886C61.5289 60.534 59.1455 58.3025 56.2034 58.3025C53.2614 58.3025 50.8779 60.534 50.8779 63.2886C50.8779 66.0432 53.2614 68.2747 56.2034 68.2747Z" fill="#E2092F"/>
<path d="M66.8597 58.2675C69.8017 58.2675 72.1852 56.036 72.1852 53.2814C72.1852 50.5269 69.8017 48.2953 66.8597 48.2953C63.9176 48.2953 61.5342 50.5269 61.5342 53.2814C61.5342 56.036 63.9176 58.2675 66.8597 58.2675Z" fill="#E2092F"/>
<path d="M66.8597 48.2488C69.8017 48.2488 72.1852 46.0173 72.1852 43.2627C72.1852 40.5082 69.8017 38.2766 66.8597 38.2766C63.9176 38.2766 61.5342 40.5082 61.5342 43.2627C61.5342 46.0173 63.9176 48.2488 66.8597 48.2488Z" fill="#E2092F"/>
<path d="M66.8597 68.2747C69.8017 68.2747 72.1852 66.0431 72.1852 63.2886C72.1852 60.534 69.8017 58.3024 66.8597 58.3024C63.9176 58.3024 61.5342 60.534 61.5342 63.2886C61.5342 66.0431 63.9176 68.2747 66.8597 68.2747Z" fill="#E2092F"/>
<path d="M31.5314 75.9279L31.519 75.9163V75.8872L31.5003 75.8989C30.1907 75.8233 -1.22847 74.0102 1.68255 105.246C1.68255 105.356 1.68255 105.438 1.71979 105.525C1.8253 105.537 1.9122 105.537 2.0053 105.531C35.4727 106.42 31.6865 77.1483 31.5314 75.9279Z" fill="#E2092F"/>
</svg>
