<svg width="134" height="51" viewBox="0 0 134 51" fill="none" xmlns="http://www.w3.org/2000/svg">
<path d="M58.6953 18.4722V3.9536H62.1202V15.2915H67.9735V18.4722H58.6953Z" fill="#ED1A3B"/>
<path d="M75.4084 10.9895C75.2132 10.5221 74.7815 10.1326 74.0177 10.1326C73.2538 10.1326 72.8221 10.5221 72.627 10.9895C72.49 11.2751 72.4526 11.5823 72.4526 11.8463H75.5827C75.5827 11.5823 75.5454 11.2751 75.4084 10.9895ZM72.4526 14.0706C72.4526 14.9664 73.1168 15.7843 74.3124 15.7843C75.4291 15.7843 75.9148 15.4597 76.4836 14.8669L78.4015 16.8661C77.3263 17.9869 76.2677 18.6014 74.3124 18.6014C71.9835 18.6014 69.3018 17.723 69.3018 12.9931C69.3018 9.40562 71.257 7.3847 74.0177 7.3847C77.0689 7.3847 78.7543 9.70854 78.7543 12.5863V14.0749H72.4526V14.0706Z" fill="#ED1A3B"/>
<path d="M85.251 18.4715V3.95293H88.6758V15.2908H94.525V18.4715H85.251Z" fill="#ED1A3B"/>
<path d="M101.354 14.0663H99.7307C99.1038 14.0663 98.7136 14.4342 98.7136 14.9448C98.7136 15.4555 99.0664 15.8622 99.7722 15.8622C100.399 15.8622 100.69 15.8017 101.042 15.4555C101.279 15.2304 101.354 14.8842 101.354 14.352V14.0663ZM101.433 18.4717V17.5759C100.789 18.251 100.2 18.5755 99.0831 18.5755C98.0286 18.5755 97.1444 18.2077 96.559 17.5975C95.953 16.9657 95.6416 16.0483 95.6416 15.027C95.6416 13.374 96.7168 11.8464 99.22 11.8464H101.354V11.5608C101.354 10.5611 100.885 10.1933 99.768 10.1933C98.9461 10.1933 98.5932 10.3967 98.0826 10.929L96.0858 8.84745C97.161 7.72664 98.1407 7.38045 99.9216 7.38045C102.935 7.38045 104.559 8.68301 104.559 11.3574V18.476H101.429L101.433 18.4717Z" fill="#ED1A3B"/>
<path d="M111.355 10.3966C110.159 10.3966 110.026 11.3962 110.026 12.9887C110.026 14.5812 110.163 15.5808 111.355 15.5808C112.546 15.5808 112.687 14.5812 112.687 12.9887C112.687 11.3962 112.55 10.3966 111.355 10.3966ZM114.917 17.5974C114.311 18.2292 113.372 18.5971 112.355 18.5971C111.259 18.5971 110.574 18.2509 109.927 17.5758V18.4716H106.817V3.94867H110.026V8.29343C110.612 7.68326 111.338 7.37601 112.372 7.37601C113.406 7.37601 114.311 7.74384 114.917 8.37565C115.954 9.45751 115.896 11.3746 115.896 12.9844C115.896 14.5942 115.954 16.5112 114.917 17.5931" fill="#ED1A3B"/>
<path d="M61.622 26.209C60.3309 26.209 60.1317 27.3515 60.1317 28.6713C60.1317 29.9912 60.3309 31.1466 61.622 31.1466C62.9131 31.1466 63.0999 29.9869 63.0999 28.6713C63.0999 27.3558 62.9172 26.209 61.622 26.209ZM63.1248 32.3929V31.601C62.5893 32.2761 62.0122 32.4795 61.2401 32.4795C60.5219 32.4795 59.8909 32.2285 59.4965 31.8217C58.7783 31.0731 58.6953 29.8008 58.6953 28.6713C58.6953 27.5419 58.7783 26.2826 59.4965 25.5339C59.8909 25.1228 60.5094 24.8762 61.2276 24.8762C61.9873 24.8762 62.5768 25.0666 63.0957 25.7114V21.9595H64.5279V32.3929H63.1206H63.1248Z" fill="#ED1A3B"/>
<path d="M70.8716 27.057C70.6474 26.4988 70.141 26.118 69.4643 26.118C68.7876 26.118 68.2687 26.4988 68.0445 27.057C67.9034 27.3946 67.8743 27.6153 67.8619 28.0697H71.0667C71.0543 27.6153 71.0086 27.3946 70.8716 27.057ZM67.8619 29.1083C67.8619 30.3848 68.5095 31.1898 69.676 31.1898C70.4772 31.1898 70.9007 30.9561 71.4071 30.4281L72.3204 31.3196C71.5898 32.0812 70.9007 32.4793 69.6511 32.4793C67.866 32.4793 66.4463 31.497 66.4463 28.6712C66.4463 26.2694 67.6419 24.876 69.4685 24.876C71.295 24.876 72.4906 26.343 72.4906 28.4505V29.1083H67.866H67.8619Z" fill="#ED1A3B"/>
<path d="M76.6874 32.4794C75.5209 32.4794 74.5371 32.276 73.6943 31.4105L74.6367 30.4282C75.2137 31.0427 75.9859 31.2028 76.6874 31.2028C77.5592 31.2028 78.2483 30.8826 78.2483 30.1772C78.2483 29.6795 77.9827 29.355 77.2935 29.2987L76.1561 29.1949C74.8193 29.078 74.0472 28.4462 74.0472 27.1437C74.0472 25.694 75.2428 24.8717 76.7331 24.8717C77.8 24.8717 78.7133 25.1054 79.3775 25.707L78.4767 26.659C78.0283 26.2652 77.3932 26.1181 76.7207 26.1181C75.8655 26.1181 75.4296 26.5119 75.4296 27.0701C75.4296 27.5072 75.6538 27.8447 76.4135 27.9183L77.5385 28.0221C78.8752 28.139 79.6598 28.7967 79.6598 30.1166C79.6598 31.6702 78.3936 32.4751 76.6957 32.4751" fill="#ED1A3B"/>
<path d="M88.8335 27.057C88.6093 26.4988 88.1029 26.118 87.4262 26.118C86.7495 26.118 86.2306 26.4988 86.0065 27.057C85.8653 27.3946 85.8363 27.6153 85.8238 28.0697H89.0286C89.0162 27.6153 88.9747 27.3946 88.8335 27.057ZM85.8238 29.1083C85.8238 30.3848 86.4714 31.1898 87.6379 31.1898C88.4391 31.1898 88.8626 30.9561 89.369 30.4281L90.2823 31.3196C89.5517 32.0812 88.8626 32.4793 87.613 32.4793C85.828 32.4793 84.4082 31.497 84.4082 28.6712C84.4082 26.2694 85.6038 24.876 87.4304 24.876C89.2569 24.876 90.4525 26.343 90.4525 28.4505V29.1083H85.828H85.8238Z" fill="#ED1A3B"/>
<path d="M94.6503 32.4794C93.4838 32.4794 92.4999 32.276 91.6572 31.4105L92.5996 30.4282C93.1766 31.0427 93.9488 31.2028 94.6503 31.2028C95.5221 31.2028 96.2112 30.8826 96.2112 30.1772C96.2112 29.6795 95.9455 29.355 95.2564 29.2987L94.119 29.1949C92.7822 29.078 92.0101 28.4462 92.0101 27.1437C92.0101 25.694 93.2057 24.8717 94.696 24.8717C95.7629 24.8717 96.6762 25.1054 97.3404 25.707L96.4396 26.659C95.9912 26.2652 95.3561 26.1181 94.6835 26.1181C93.8284 26.1181 93.3925 26.5119 93.3925 27.0701C93.3925 27.5072 93.6167 27.8447 94.3763 27.9183L95.5014 28.0221C96.8381 28.139 97.6227 28.7967 97.6227 30.1166C97.6227 31.6702 96.3565 32.4751 94.6545 32.4751" fill="#ED1A3B"/>
<path d="M102.285 26.2089C100.989 26.2089 100.794 27.3513 100.794 28.6712C100.794 29.991 100.989 31.1465 102.285 31.1465C103.58 31.1465 103.762 29.9867 103.762 28.6712C103.762 27.3556 103.58 26.2089 102.285 26.2089ZM104.393 31.8216C103.999 32.2327 103.381 32.4793 102.667 32.4793C101.907 32.4793 101.317 32.2759 100.798 31.6311V35.396H99.3662V24.9626H100.774V25.7545C101.309 25.0794 101.882 24.876 102.658 24.876C103.376 24.876 104.007 25.127 104.402 25.5338C105.12 26.2824 105.203 27.5417 105.203 28.6712C105.203 29.8006 105.12 31.0729 104.402 31.8216" fill="#ED1A3B"/>
<path d="M110.944 29.1083H109.271C108.428 29.1083 107.992 29.5021 107.992 30.1772C107.992 30.8523 108.399 31.2331 109.3 31.2331C109.848 31.2331 110.254 31.1898 110.636 30.809C110.848 30.5883 110.944 30.2378 110.944 29.7098V29.1083ZM110.973 32.3885V31.7134C110.454 32.2544 109.96 32.4751 109.076 32.4751C108.191 32.4751 107.602 32.2544 107.166 31.8C106.801 31.4062 106.605 30.8306 106.605 30.2032C106.605 28.9569 107.436 28.0654 109.067 28.0654H110.952V27.5375C110.952 26.5984 110.504 26.144 109.391 26.144C108.602 26.144 108.224 26.3344 107.83 26.8624L106.888 25.9406C107.564 25.1184 108.266 24.8717 109.445 24.8717C111.4 24.8717 112.384 25.7372 112.384 27.4206V32.3885H110.981H110.973Z" fill="#ED1A3B"/>
<path d="M117.395 32.4793C115.793 32.4793 114.22 31.4537 114.22 28.6712C114.22 25.8886 115.793 24.876 117.395 24.876C118.379 24.876 119.068 25.1703 119.741 25.9146L118.757 26.9099C118.309 26.3993 117.956 26.2089 117.391 26.2089C116.827 26.2089 116.378 26.4425 116.071 26.8666C115.76 27.2777 115.648 27.8057 115.648 28.6669C115.648 29.528 115.76 30.0733 116.071 30.4844C116.378 30.9085 116.843 31.1422 117.391 31.1422C117.939 31.1422 118.305 30.9517 118.757 30.4411L119.741 31.4234C119.064 32.1721 118.375 32.4793 117.395 32.4793Z" fill="#ED1A3B"/>
<path d="M125.208 27.057C124.983 26.4988 124.477 26.118 123.8 26.118C123.124 26.118 122.605 26.4988 122.38 27.057C122.239 27.3946 122.21 27.6153 122.198 28.0697H125.403C125.39 27.6153 125.349 27.3946 125.208 27.057ZM122.198 29.1083C122.198 30.3848 122.845 31.1898 124.012 31.1898C124.813 31.1898 125.237 30.9561 125.743 30.4281L126.656 31.3196C125.926 32.0812 125.237 32.4793 123.987 32.4793C122.202 32.4793 120.782 31.497 120.782 28.6712C120.782 26.2694 121.978 24.876 123.804 24.876C125.631 24.876 126.827 26.343 126.827 28.4505V29.1083H122.202H122.198Z" fill="#ED1A3B"/>
<path d="M131.027 32.4794C129.861 32.4794 128.877 32.276 128.034 31.4105L128.977 30.4282C129.554 31.0427 130.326 31.2028 131.027 31.2028C131.899 31.2028 132.588 30.8826 132.588 30.1772C132.588 29.6795 132.322 29.355 131.633 29.2987L130.496 29.1949C129.159 29.078 128.387 28.4462 128.387 27.1437C128.387 25.694 129.583 24.8717 131.073 24.8717C132.14 24.8717 133.053 25.1054 133.717 25.707L132.817 26.659C132.368 26.2652 131.733 26.1181 131.06 26.1181C130.205 26.1181 129.769 26.5119 129.769 27.0701C129.769 27.5072 129.994 27.8447 130.753 27.9183L131.878 28.0221C133.215 28.139 134 28.7967 134 30.1166C134 31.6702 132.733 32.4751 131.031 32.4751" fill="#ED1A3B"/>
<path d="M61.6225 41.0349C60.3273 41.0349 60.1322 42.1774 60.1322 43.4973C60.1322 44.8171 60.3273 45.9726 61.6225 45.9726C62.9177 45.9726 63.1004 44.8128 63.1004 43.4973C63.1004 42.1817 62.9177 41.0349 61.6225 41.0349ZM63.7314 46.6476C63.337 47.0587 62.7184 47.3054 62.0044 47.3054C61.2447 47.3054 60.6552 47.102 60.1363 46.4572V50.2221H58.7041V39.7886H60.1114V40.5806C60.6469 39.9055 61.224 39.7021 61.9961 39.7021C62.7143 39.7021 63.3453 39.9531 63.7397 40.3599C64.4578 41.1085 64.5409 42.3678 64.5409 43.4973C64.5409 44.6267 64.4578 45.899 63.7397 46.6476" fill="#ED1A3B"/>
<path d="M70.7717 47.2187V46.4701C70.2777 47.0283 69.5928 47.3053 68.8746 47.3053C68.1564 47.3053 67.5379 47.0543 67.1186 46.6302C66.5706 46.072 66.4004 45.3709 66.4004 44.5357V39.7885H67.8326V44.315C67.8326 45.4748 68.4636 45.9681 69.2648 45.9681C70.066 45.9681 70.7427 45.4575 70.7427 44.315V39.7885H72.1749V47.2187H70.7676H70.7717Z" fill="#ED1A3B"/>
<path d="M77.3769 41.0348C76.0817 41.0348 75.8866 42.1773 75.8866 43.4972C75.8866 44.817 76.0817 45.9725 77.3769 45.9725C78.6721 45.9725 78.8548 44.8127 78.8548 43.4972C78.8548 42.1816 78.6721 41.0348 77.3769 41.0348ZM79.4858 46.6475C79.0914 47.0587 78.4604 47.3053 77.7422 47.3053C76.97 47.3053 76.393 47.1019 75.8575 46.4268V47.2188H74.4502V36.7853H75.8824V40.5372C76.4013 39.8924 76.995 39.702 77.7505 39.702C78.4687 39.702 79.0872 39.953 79.4774 40.3598C80.1956 41.1084 80.2787 42.3677 80.2787 43.4972C80.2787 44.6266 80.1956 45.8989 79.4774 46.6475" fill="#ED1A3B"/>
<path d="M84.1398 47.2188C82.7741 47.2188 82.1846 46.2667 82.1846 45.1676V36.7853H83.6168V45.081C83.6168 45.6522 83.8119 45.9465 84.3889 45.9465H85.0199V47.2231H84.1357L84.1398 47.2188Z" fill="#ED1A3B"/>
<path d="M86.6011 39.7886H88.0333V47.2188H86.6011V39.7886ZM86.5596 36.7421H88.079V38.3259H86.5596V36.7421Z" fill="#ED1A3B"/>
<path d="M93.123 47.3054C91.5206 47.3054 89.9473 46.2798 89.9473 43.4973C89.9473 40.7147 91.5206 39.7021 93.123 39.7021C94.1069 39.7021 94.796 39.9964 95.4685 40.7407L94.4847 41.736C94.0363 41.2253 93.6835 41.0349 93.1189 41.0349C92.5543 41.0349 92.106 41.2686 91.7988 41.6927C91.4874 42.1038 91.3753 42.6318 91.3753 43.4929C91.3753 44.3541 91.4874 44.8993 91.7988 45.3105C92.106 45.7345 92.5709 45.9682 93.1189 45.9682C93.6669 45.9682 94.0322 45.7778 94.4847 45.2672L95.4685 46.2495C94.7919 46.9982 94.1027 47.3054 93.123 47.3054Z" fill="#ED1A3B"/>
<path d="M99.4326 47.3053C98.266 47.3053 97.2822 47.1019 96.4395 46.2364L97.3818 45.2541C97.9588 45.8686 98.731 46.0287 99.4326 46.0287C100.304 46.0287 100.993 45.7041 100.993 45.0031C100.993 44.5054 100.728 44.1809 100.039 44.1246L98.9012 44.0207C97.5645 43.9039 96.7923 43.2721 96.7923 41.9695C96.7923 40.5198 97.9879 39.6976 99.4782 39.6976C100.545 39.6976 101.458 39.9313 102.123 40.5328L101.222 41.4849C100.773 41.0911 100.138 40.9439 99.4658 40.9439C98.6106 40.9439 98.1747 41.3377 98.1747 41.896C98.1747 42.333 98.3989 42.6706 99.1586 42.7441L100.284 42.848C101.62 42.9648 102.405 43.6226 102.405 44.9425C102.405 46.496 101.139 47.3009 99.4367 47.3009" fill="#ED1A3B"/>
<path d="M0 28.508V33.2811L19.8475 50.5909H21.1801V44.8657L2.42437 28.508H0Z" fill="#00A887"/>
<path d="M6.94922 28.508H14.845L21.18 34.0341V40.9191L6.94922 28.508Z" fill="#00A887"/>
<path d="M0 44.2468L7.27727 50.5909H15.1731L0 37.3575V44.2468Z" fill="#00A887"/>
<path d="M21.1801 0.280212V11.2979H21.1551V11.3239C21.1551 15.3873 19.0546 18.9315 15.9286 20.8529C14.3636 21.8136 12.537 22.3632 10.59 22.3632C8.64306 22.3632 6.78326 21.8006 5.20576 20.8226C2.10472 18.8969 0.0249079 15.3614 0.0249079 11.3239V11.2979H0V0.280212H1.01292C6.27265 0.803833 10.4032 5.36063 10.5402 10.956C10.6772 5.38227 14.7787 0.838453 20.0052 0.280212H21.1801Z" fill="#ED1A3B"/>
<path d="M30.9485 25.11C32.8997 25.11 34.4772 23.4656 34.4772 21.4403C34.4772 19.4151 32.8955 17.7707 30.9485 17.7707C29.0016 17.7707 27.4199 19.4151 27.4199 21.4403C27.4199 23.4656 29.0016 25.11 30.9485 25.11Z" fill="#00A887"/>
<path d="M38.0101 17.7492C39.9612 17.7492 41.5387 16.1048 41.5387 14.0795C41.5387 12.0543 39.957 10.4099 38.0101 10.4099C36.0631 10.4099 34.4814 12.0543 34.4814 14.0795C34.4814 16.1048 36.0631 17.7492 38.0101 17.7492Z" fill="#00A887"/>
<path d="M38.0101 25.11C39.9612 25.11 41.5387 23.4656 41.5387 21.4403C41.5387 19.4151 39.957 17.7707 38.0101 17.7707C36.0631 17.7707 34.4814 19.4151 34.4814 21.4403C34.4814 23.4656 36.0631 25.11 38.0101 25.11Z" fill="#00A887"/>
<path d="M45.0667 17.7492C47.0178 17.7492 48.5953 16.1048 48.5953 14.0795C48.5953 12.0543 47.0137 10.4099 45.0667 10.4099C43.1197 10.4099 41.5381 12.0543 41.5381 14.0795C41.5381 16.1048 43.1197 17.7492 45.0667 17.7492Z" fill="#00A887"/>
<path d="M45.0667 10.3751C47.0178 10.3751 48.5953 8.73071 48.5953 6.70547C48.5953 4.68023 47.0137 3.0358 45.0667 3.0358C43.1197 3.0358 41.5381 4.68023 41.5381 6.70547C41.5381 8.73071 43.1197 10.3751 45.0667 10.3751Z" fill="#00A887"/>
<path d="M45.0667 25.11C47.0178 25.11 48.5953 23.4656 48.5953 21.4403C48.5953 19.4151 47.0137 17.7707 45.0667 17.7707C43.1197 17.7707 41.5381 19.4151 41.5381 21.4403C41.5381 23.4656 43.1197 25.11 45.0667 25.11Z" fill="#00A887"/>
<path d="M47.2625 47.0069C46.4821 47.6171 45.9175 48.0585 44.6389 48.0585C43.3603 48.0585 42.7957 47.6171 42.0152 47.0069C41.1476 46.3275 40.0641 45.4836 38.0466 45.4836C36.029 45.4836 34.9497 46.3275 34.0779 47.0069C33.2975 47.6171 32.7329 48.0585 31.4584 48.0585C30.184 48.0585 29.6152 47.6171 28.8389 47.0069C28.4363 46.691 27.9838 46.3405 27.415 46.0549V49.136C27.4399 49.1576 27.469 49.1793 27.4939 49.1966C28.3615 49.876 29.445 50.7198 31.4626 50.7198C33.4801 50.7198 34.5595 49.876 35.4312 49.1966C36.2117 48.5864 36.7763 48.145 38.0549 48.145C39.3335 48.145 39.8981 48.5864 40.6744 49.1966C41.542 49.876 42.6255 50.7198 44.643 50.7198C46.6606 50.7198 47.7316 49.8803 48.5992 49.2009V46.0938C48.072 46.3708 47.6444 46.704 47.2625 47.0026" fill="#ED1A3B"/>
<path d="M44.6389 42.2381C43.3603 42.2381 42.7957 41.7967 42.0152 41.1865C41.1476 40.5071 40.0641 39.6633 38.0466 39.6633C36.029 39.6633 34.9497 40.5071 34.0779 41.1865C33.2975 41.7967 32.7329 42.2381 31.4584 42.2381C30.184 42.2381 29.6152 41.7967 28.8389 41.1865C28.4363 40.8706 27.9838 40.5201 27.415 40.2345V43.3156C27.4399 43.3373 27.469 43.3589 27.4939 43.3762C28.3615 44.0556 29.445 44.8995 31.4626 44.8995C33.4801 44.8995 34.5595 44.0556 35.4312 43.3762C36.2117 42.766 36.7763 42.3246 38.0507 42.3246C39.3252 42.3246 39.8939 42.766 40.6744 43.3762C41.542 44.0556 42.6255 44.8995 44.643 44.8995C46.6606 44.8995 47.7316 44.06 48.5992 43.3805V40.2734C48.072 40.5504 47.6444 40.8836 47.2625 41.1822C46.4821 41.7924 45.9175 42.2338 44.6389 42.2338" fill="#ED1A3B"/>
<path d="M27.4983 37.5602C28.3659 38.2396 29.4494 39.0834 31.467 39.0834C33.4845 39.0834 34.5639 38.2396 35.4356 37.5602C36.2161 36.95 36.7807 36.5086 38.0593 36.5086C39.3379 36.5086 39.9025 36.95 40.6829 37.5602C41.5505 38.2396 42.634 39.0834 44.6516 39.0834C46.6691 39.0834 47.7443 38.2439 48.6078 37.5688V34.4617C48.0806 34.7387 47.653 35.0719 47.2711 35.3705C46.4906 35.9806 45.926 36.422 44.6474 36.422C43.3688 36.422 42.8042 35.9806 42.0279 35.3705C41.1603 34.6911 40.0768 33.8472 38.0593 33.8472C36.0417 33.8472 34.9624 34.6911 34.0906 35.3705C33.3102 35.9806 32.7456 36.422 31.4711 36.422C30.1967 36.422 29.6279 35.9806 28.8516 35.3705C28.449 35.0546 27.9965 34.704 27.4277 34.4184V37.4996C27.4526 37.5212 27.4817 37.5429 27.5066 37.5602" fill="#ED1A3B"/>
</svg>
