<svg width="157" height="211" viewBox="0 0 157 211" fill="none" xmlns="http://www.w3.org/2000/svg">
<path d="M39.3184 179.178C37.773 177.978 36.6587 177.112 34.121 177.112C31.5832 177.112 30.4689 177.978 28.9235 179.178C27.1992 180.516 25.06 182.171 21.0663 182.171C17.0727 182.171 14.9254 180.508 13.2092 179.178C11.6638 177.978 10.5494 177.112 8.01171 177.112C5.47399 177.112 4.35967 177.978 2.8224 179.178C2.01716 179.796 1.12245 180.49 0 181.056V174.994C0.0488023 174.951 0.105738 174.916 0.154541 174.874C1.87889 173.536 4.01806 171.881 8.01171 171.881C12.0054 171.881 14.1527 173.544 15.8689 174.874C17.4143 176.074 18.5286 176.94 21.0582 176.94C23.5878 176.94 24.7102 176.074 26.2556 174.874C27.98 173.536 30.1192 171.881 34.1128 171.881C38.1065 171.881 40.2375 173.527 41.9537 174.865V180.971C40.9045 180.422 40.0667 179.77 39.3021 179.187" fill="white"/>
<path d="M34.129 188.56C31.5994 188.56 30.477 189.426 28.9316 190.627C27.2072 191.964 25.068 193.619 21.0744 193.619C17.0807 193.619 14.9334 191.956 13.2172 190.627C11.6718 189.426 10.5575 188.56 8.0279 188.56C5.49832 188.56 4.37586 189.426 2.83046 190.627C2.03335 191.244 1.13051 191.939 0.00805664 192.505V186.442C0.056859 186.399 0.113795 186.365 0.162597 186.322C1.88695 184.984 4.02611 183.329 8.01977 183.329C12.0134 183.329 14.1607 184.992 15.8769 186.322C17.4223 187.522 18.5367 188.388 21.0744 188.388C23.6121 188.388 24.7264 187.522 26.2718 186.322C27.9962 184.984 30.1354 183.329 34.129 183.329C38.1227 183.329 40.2537 184.975 41.9699 186.313V192.419C40.9207 191.87 40.0829 191.218 39.3183 190.635C37.7729 189.435 36.6586 188.568 34.1209 188.568" fill="white"/>
<path d="M0.162674 197.753C1.88702 196.415 4.02619 194.76 8.01985 194.76C12.0135 194.76 14.1608 196.424 15.877 197.753C17.4224 198.953 18.5367 199.82 21.0745 199.82C23.6122 199.82 24.7265 198.953 26.2719 197.753C27.9963 196.415 30.1354 194.76 34.1291 194.76C38.1227 194.76 40.2538 196.415 41.97 197.744V203.85C40.9207 203.301 40.083 202.649 39.3184 202.066C37.773 200.866 36.6587 200 34.121 200C31.5832 200 30.4689 200.866 28.9235 202.066C27.1992 203.404 25.06 205.059 21.0663 205.059C17.0727 205.059 14.9254 203.396 13.2092 202.066C11.6638 200.866 10.5494 200 8.01171 200C5.47399 200 4.36781 200.866 2.8224 202.066C2.0253 202.684 1.12245 203.378 0 203.936V197.873C0.0488023 197.83 0.105738 197.796 0.154541 197.753" fill="white"/>
<path d="M117.652 25.8807C119.197 27.0813 120.312 27.9474 122.849 27.9474C125.387 27.9474 126.501 27.0813 128.047 25.8807C129.771 24.5429 131.91 22.8879 135.904 22.8879C139.898 22.8879 142.045 24.5515 143.761 25.8807C145.306 27.0813 146.421 27.9474 148.959 27.9474C151.496 27.9474 152.611 27.0813 154.148 25.8807C154.953 25.2633 155.848 24.5687 156.97 24.0027L156.97 30.0655C156.921 30.1084 156.864 30.1427 156.816 30.1856C155.091 31.5233 152.952 33.1784 148.959 33.1784C144.965 33.1784 142.818 31.5148 141.101 30.1856C139.556 28.985 138.442 28.1189 135.912 28.1189C133.382 28.1189 132.26 28.985 130.715 30.1856C128.99 31.5233 126.851 33.1784 122.857 33.1784C118.864 33.1784 116.733 31.5319 115.016 30.1942L115.016 24.0884C116.066 24.6373 116.904 25.289 117.668 25.8721" fill="white"/>
<path d="M122.841 16.4993C125.371 16.4993 126.493 15.6332 128.039 14.4327C129.763 13.0949 131.902 11.4398 135.896 11.4398C139.889 11.4398 142.037 13.1035 143.753 14.4327C145.298 15.6332 146.413 16.4993 148.942 16.4993C151.472 16.4993 152.594 15.6332 154.14 14.4327C154.937 13.8152 155.84 13.1206 156.962 12.5546L156.962 18.6175C156.913 18.6603 156.856 18.6946 156.808 18.7375C155.083 20.0753 152.944 21.7303 148.95 21.7303C144.957 21.7303 142.809 20.0667 141.093 18.7375C139.548 17.537 138.434 16.6708 135.896 16.6708C133.358 16.6708 132.244 17.537 130.698 18.7375C128.974 20.0753 126.835 21.7303 122.841 21.7303C118.848 21.7303 116.717 20.0839 115 18.7461L115 12.6404C116.05 13.1892 116.887 13.8409 117.652 14.4241C119.197 15.6246 120.312 16.4908 122.849 16.4908" fill="white"/>
<path d="M156.808 7.30627C155.083 8.64404 152.944 10.2991 148.95 10.2991C144.957 10.2991 142.809 8.63546 141.093 7.30627C139.548 6.10571 138.433 5.23959 135.896 5.23959C133.358 5.2396 132.244 6.10571 130.698 7.30627C128.974 8.64404 126.835 10.2991 122.841 10.2991C118.847 10.2991 116.716 8.64404 115 7.31485L115 1.20914C116.049 1.75797 116.887 2.4097 117.652 2.99283C119.197 4.19339 120.312 5.05951 122.849 5.05951C125.387 5.05951 126.501 4.19339 128.047 2.99283C129.771 1.65506 131.91 2.30979e-06 135.904 1.94169e-06C139.898 1.5736e-06 142.045 1.66363 143.761 2.99283C145.306 4.19339 146.421 5.05951 148.959 5.05951C151.496 5.05951 152.602 4.19339 154.148 2.99283C154.945 2.37539 155.848 1.68078 156.97 1.12338L156.97 7.18621C156.921 7.22909 156.864 7.26339 156.816 7.30627" fill="white"/>
<path d="M58.4328 165.947C62.2876 165.947 65.4105 169.24 65.4105 173.304C65.4105 177.368 62.2876 180.661 58.4328 180.661C54.578 180.661 51.4551 177.368 51.4551 173.304C51.4551 169.24 54.578 165.947 58.4328 165.947Z" fill="white"/>
<path d="M72.3881 180.712C76.2429 180.712 79.3658 184.004 79.3658 188.069C79.3658 192.133 76.2429 195.425 72.3881 195.425C68.5333 195.425 65.4104 192.133 65.4104 188.069C65.4104 184.004 68.5333 180.712 72.3881 180.712Z" fill="white"/>
<path d="M72.3881 165.947C76.2429 165.947 79.3658 169.24 79.3658 173.304C79.3658 177.368 76.2429 180.661 72.3881 180.661C68.5333 180.661 65.4104 177.368 65.4104 173.304C65.4104 169.24 68.5333 165.947 72.3881 165.947Z" fill="white"/>
<path d="M86.3515 180.712C90.2063 180.712 93.3292 184.004 93.3292 188.069C93.3292 192.133 90.2063 195.425 86.3515 195.425C82.4967 195.425 79.3738 192.133 79.3738 188.069C79.3738 184.004 82.4967 180.712 86.3515 180.712Z" fill="white"/>
<path d="M86.3515 195.494C90.2063 195.494 93.3292 198.786 93.3292 202.85C93.3292 206.915 90.2063 210.207 86.3515 210.207C82.4967 210.207 79.3738 206.915 79.3738 202.85C79.3738 198.786 82.4967 195.494 86.3515 195.494Z" fill="white"/>
<path d="M86.3515 165.947C90.2063 165.947 93.3292 169.24 93.3292 173.304C93.3292 177.368 90.2063 180.661 86.3515 180.661C82.4967 180.661 79.3738 177.368 79.3738 173.304C79.3738 169.24 82.4967 165.947 86.3515 165.947Z" fill="white"/>
<path d="M135.58 81.9084C142.63 81.9083 148.34 75.8883 148.34 68.4554C148.34 61.0225 142.63 54.9919 135.58 54.9919C128.53 54.9919 122.81 61.0225 122.81 68.4554C122.81 75.8883 128.53 81.9084 135.58 81.9084ZM135.58 46.5153C147.07 46.5153 156.38 56.3414 156.38 68.4554C156.38 80.5694 147.07 90.3955 135.58 90.3955C124.09 90.3955 114.77 80.5694 114.77 68.4554C114.77 56.3414 124.08 46.5153 135.58 46.5153Z" fill="white"/>
<path d="M129.51 68.4554C129.51 71.9873 132.22 74.855 135.58 74.855C138.94 74.855 141.64 71.9873 141.64 68.4554C141.64 64.9234 138.93 62.0557 135.58 62.0557C132.23 62.0557 129.51 64.9234 129.51 68.4554Z" fill="white"/>
<path d="M111.33 143.237C111.33 139.199 114.47 135.931 118.35 135.931C122.23 135.931 125.37 139.199 125.37 143.237C125.37 147.275 122.23 150.544 118.35 150.544C114.47 150.544 111.33 147.275 111.33 143.237Z" fill="white"/>
<path d="M125.4 128.625C125.4 124.587 128.54 121.318 132.42 121.318C136.3 121.318 139.44 124.587 139.44 128.625C139.44 132.663 136.3 135.931 132.42 135.931C128.54 135.931 125.4 132.663 125.4 128.625Z" fill="white"/>
<path d="M111.33 128.625C111.33 124.587 114.47 121.318 118.35 121.318C122.23 121.318 125.37 124.587 125.37 128.625C125.37 132.663 122.23 135.931 118.35 135.931C114.47 135.931 111.33 132.663 111.33 128.625Z" fill="white"/>
<path d="M125.4 114.012C125.4 109.974 128.54 106.706 132.42 106.706C136.3 106.706 139.44 109.974 139.44 114.012C139.44 118.05 136.3 121.318 132.42 121.318C128.54 121.318 125.4 118.05 125.4 114.012Z" fill="white"/>
<path d="M139.5 114.012C139.5 109.974 142.64 106.706 146.52 106.706C150.4 106.706 153.53 109.974 153.53 114.012C153.53 118.05 150.39 121.318 146.51 121.318C142.63 121.318 139.49 118.05 139.49 114.012" fill="white"/>
<path d="M111.33 114.012C111.33 109.974 114.47 106.706 118.35 106.706C122.23 106.706 125.37 109.974 125.37 114.012C125.37 118.05 122.23 121.318 118.35 121.318C114.47 121.318 111.33 118.05 111.33 114.012Z" fill="white"/>
<path d="M53.6498 107.296L53.6698 107.275L53.6698 107.233L53.6898 107.254C55.3998 107.138 96.2498 104.46 92.4599 150.67C92.4599 150.839 92.4599 150.955 92.4099 151.082C92.2699 151.103 92.1599 151.092 92.0399 151.082C48.5199 152.399 53.4398 109.088 53.6498 107.286" fill="white"/>
<path d="M130.821 180.257C126.54 180.257 123.053 183.925 123.053 188.447C123.053 192.969 126.54 196.646 130.821 196.646C135.101 196.646 138.598 192.969 138.598 188.447C138.598 183.925 135.11 180.257 130.821 180.257ZM130.821 210.302C119.388 210.302 110.11 200.52 110.11 188.447C110.11 176.374 119.388 166.612 130.821 166.612C142.253 166.612 151.55 176.394 151.55 188.447C151.55 200.5 142.272 210.302 130.821 210.302Z" fill="white"/>
</svg>
