<svg width="150" height="144" viewBox="0 0 150 144" fill="none" xmlns="http://www.w3.org/2000/svg">
<path d="M89.6617 0V46.2047H89.5538V46.3163C89.5538 63.3473 80.6632 78.2131 67.4135 86.271C60.7887 90.2888 53.0634 92.5879 44.8201 92.5879C36.5768 92.5879 28.7004 90.2219 22.0324 86.1371C8.91223 78.0792 0.107895 63.258 0.107895 46.3163V46.2047H0V0H4.29427C26.5425 2.20979 44.0432 21.3166 44.6259 44.7538C45.1869 21.3836 62.5582 2.32139 84.6769 0H89.6617Z" fill="#E2092F"/>
<path d="M110.688 52.3574V60.9646L146.756 92.1783H149.177V81.8544L115.093 52.3574H110.688Z" fill="#009882"/>
<path d="M123.316 52.3574H137.665L149.177 62.3224V74.7377L123.316 52.3574Z" fill="#009882"/>
<path d="M110.688 80.739L123.912 92.1788H138.261L110.688 68.3159V80.739Z" fill="#009882"/>
<path d="M148.268 0.100664L148.248 0.0805814V0.0404236L148.229 0.0605063C146.579 -0.0499251 107.15 -2.5999 110.808 41.402C110.808 41.5626 110.808 41.6731 110.856 41.7935C110.991 41.8136 111.097 41.8036 111.213 41.7935C153.219 43.0484 148.47 1.80733 148.268 0.0906227" fill="#E2092F"/>
<path d="M146.279 130.847C144.892 131.904 143.892 132.667 141.615 132.667C139.338 132.667 138.338 131.904 136.952 130.847C135.405 129.67 133.485 128.213 129.902 128.213C126.319 128.213 124.392 129.677 122.852 130.847C121.465 131.904 120.466 132.667 118.189 132.667C115.912 132.667 114.912 131.904 113.532 130.847C112.81 130.304 112.007 129.692 111 129.194V134.531C111.044 134.569 111.095 134.599 111.139 134.637C112.686 135.815 114.605 137.272 118.189 137.272C121.772 137.272 123.699 135.807 125.238 134.637C126.625 133.58 127.625 132.818 129.895 132.818C132.164 132.818 133.171 133.58 134.558 134.637C136.105 135.815 138.025 137.272 141.608 137.272C145.191 137.272 147.103 135.822 148.643 134.645V129.27C147.702 129.753 146.95 130.327 146.264 130.84" fill="#E2092F"/>
<path d="M141.623 122.589C139.353 122.589 138.346 121.826 136.96 120.769C135.412 119.592 133.493 118.135 129.91 118.135C126.326 118.135 124.4 119.599 122.86 120.769C121.473 121.826 120.473 122.589 118.204 122.589C115.934 122.589 114.927 121.826 113.54 120.769C112.825 120.226 112.015 119.614 111.008 119.116V124.453C111.052 124.491 111.103 124.521 111.146 124.559C112.694 125.737 114.613 127.193 118.196 127.193C121.78 127.193 123.706 125.729 125.246 124.559C126.633 123.502 127.633 122.74 129.91 122.74C132.187 122.74 133.187 123.502 134.573 124.559C136.12 125.737 138.04 127.193 141.623 127.193C145.206 127.193 147.119 125.744 148.658 124.566V119.192C147.717 119.675 146.965 120.248 146.279 120.762C144.893 121.819 143.893 122.581 141.616 122.581" fill="#E2092F"/>
<path d="M111.146 114.496C112.693 115.674 114.613 117.131 118.196 117.131C121.779 117.131 123.706 115.666 125.246 114.496C126.632 113.439 127.632 112.677 129.909 112.677C132.186 112.677 133.186 113.439 134.573 114.496C136.12 115.674 138.039 117.131 141.623 117.131C145.206 117.131 147.118 115.674 148.658 114.504V109.129C147.716 109.612 146.965 110.186 146.279 110.699C144.892 111.756 143.892 112.518 141.615 112.518C139.338 112.518 138.338 111.756 136.952 110.699C135.405 109.521 133.485 108.064 129.902 108.064C126.319 108.064 124.392 109.529 122.852 110.699C121.465 111.756 120.466 112.518 118.189 112.518C115.912 112.518 114.919 111.756 113.532 110.699C112.817 110.156 112.007 109.544 111 109.053V114.39C111.044 114.428 111.095 114.458 111.139 114.496" fill="#E2092F"/>
<path d="M17.1721 114.412C22.9894 114.412 27.7009 119.286 27.7009 125.303C27.7009 131.32 22.9893 136.202 17.1721 136.202C11.3549 136.202 6.63517 131.32 6.63517 125.303C6.63517 119.286 11.3549 114.412 17.1721 114.412ZM17.1721 143.064C26.653 143.064 34.335 135.11 34.335 125.303C34.335 115.496 26.653 107.542 17.1721 107.542C7.69134 107.542 0.00107807 115.496 0.00107725 125.303C0.00107642 135.11 7.68309 143.064 17.1721 143.064Z" fill="#E2092F"/>
<path d="M12.163 125.303C12.163 122.444 14.3991 120.122 17.1716 120.122C19.944 120.122 22.1719 122.444 22.1719 125.303C22.1719 128.162 19.9358 130.484 17.1716 130.484C14.4074 130.484 12.163 128.162 12.163 125.303Z" fill="#E2092F"/>
<path d="M79.3779 137.115C79.3779 133.847 76.7869 131.201 73.5854 131.201C70.3839 131.201 67.793 133.847 67.793 137.115C67.793 140.384 70.3839 143.03 73.5854 143.03C76.7869 143.03 79.3779 140.384 79.3779 137.115Z" fill="#009882"/>
<path d="M67.7685 125.286C67.7685 122.017 65.1776 119.371 61.976 119.371C58.7745 119.371 56.1836 122.017 56.1836 125.286C56.1836 128.555 58.7745 131.201 61.976 131.201C65.1776 131.201 67.7685 128.555 67.7685 125.286Z" fill="#009882"/>
<path d="M79.3779 125.286C79.3779 122.017 76.7869 119.371 73.5854 119.371C70.3839 119.371 67.793 122.017 67.793 125.286C67.793 128.555 70.3839 131.201 73.5854 131.201C76.7869 131.201 79.3779 128.555 79.3779 125.286Z" fill="#009882"/>
<path d="M67.7685 113.456C67.7685 110.187 65.1776 107.542 61.976 107.542C58.7745 107.542 56.1836 110.187 56.1836 113.456C56.1836 116.725 58.7745 119.371 61.976 119.371C65.1776 119.371 67.7685 116.725 67.7685 113.456Z" fill="#009882"/>
<path d="M56.1343 113.456C56.1343 110.187 53.5433 107.542 50.3418 107.542C47.1403 107.542 44.5576 110.187 44.5576 113.456C44.5576 116.725 47.1485 119.371 50.3501 119.371C53.5516 119.371 56.1425 116.725 56.1425 113.456" fill="#009882"/>
<path d="M79.3779 113.456C79.3779 110.187 76.7869 107.542 73.5854 107.542C70.3839 107.542 67.793 110.187 67.793 113.456C67.793 116.725 70.3839 119.371 73.5854 119.371C76.7869 119.371 79.3779 116.725 79.3779 113.456Z" fill="#009882"/>
</svg>
