<svg width="18" height="17" viewBox="0 0 18 17" fill="none" xmlns="http://www.w3.org/2000/svg">
<path d="M7.00879 0C10.8798 0 14.0185 3.09858 14.0186 6.9209L14.0088 7.27734C13.9458 8.50419 13.5572 9.64539 12.9297 10.6221L16.8867 14.5293C17.2796 14.9173 17.2796 15.5466 16.8867 15.9346C16.4937 16.3226 15.8559 16.3226 15.4629 15.9346L11.6162 12.1348C10.3841 13.1971 8.77305 13.8418 7.00879 13.8418C3.13791 13.8416 0 10.7432 0 6.9209C9.68193e-05 3.0987 3.13797 0.000194658 7.00879 0ZM7.00879 2C4.21862 2.00019 2.0001 4.22703 2 6.9209C2 9.61485 4.21856 11.8416 7.00879 11.8418C9.79919 11.8418 12.0186 9.61496 12.0186 6.9209C12.0185 4.22691 9.79913 2 7.00879 2Z" fill="black"/>
</svg>
